# xmcd
#
# Track frame offsets: 
#        150
#        16101
#        32412
#        49822
#        66319
#        83292
#        98937
#        117584
#        133613
#        150032
#        167413
#        183913
#        200855
#        216513
#
# Disc length: 3133 seconds
#
# Revision: 0
# Processed by: cddbd v1.5.2PL0 Copyright (c) Steve Scherf et al.
# Submitted via: ExactAudioCopy v0.99pb4
#
DISCID=b20c3b0e
DTITLE=The Revelations Featuring Tre Williams - Deep Soul EP
DYEAR=2008
DGENRE=R&B
TTITLE0=Stay Free
TTITLE1=Sorry's Not Enough
TTITLE2=Everybody Knows
TTITLE3=I Don't Wanna Know
TTITLE4=Because Of You
TTITLE5=Heavy Metal
TTITLE6=Hustler
TTITLE7=Stay Free (Instrumental)
TTITLE8=Sorry's Not Enough (Instrumental)
TTITLE9=Everybody Knows (Instrumental)
TTITLE10=I Don't Wanna Know (Instrumental)
TTITLE11=Because Of You (Instrumental)
TTITLE12=Heavy Metal (Instrumental)
TTITLE13=Hustler (Instrumental)
EXTD=
EXTT0=
EXTT1=
EXTT2=
EXTT3=
EXTT4=
EXTT5=
EXTT6=
EXTT7=
EXTT8=
EXTT9=
EXTT10=
EXTT11=
EXTT12=
EXTT13=
PLAYORDER=
